<?xml version="1.0" encoding="utf-8"?>
<!-- Generator: Adobe Illustrator 21.1.0, SVG Export Plug-In . SVG Version: 6.00 Build 0)  -->
<svg version="1.1" id="Layer_1" xmlns="http://www.w3.org/2000/svg" xmlns:xlink="http://www.w3.org/1999/xlink" x="0px" y="0px"
	 viewBox="0 0 504 540" style="enable-background:new 0 0 504 540;" xml:space="preserve">
<style type="text/css">
	.st0{fill:#0072BC;stroke:#FFFFFF;}
	.st1{fill:#DA2128;stroke:#FFFFFF;}
	.st2{display:none;}
	.st3{display:inline;}
	.st4{fill:none;}
	.st5{fill:#FFFFFF;}
	.st6{font-family:'Interstate-Bold';}
	.st7{font-size:8px;}
	.st8{display:inline;fill:#DE7149;}
	.st9{display:inline;fill:#ED9D6B;}
	.st10{display:inline;fill:#F7CB92;}
	.st11{display:inline;fill:#FFFFBF;}
	.st12{display:inline;fill:#D2E89B;}
	.st13{display:inline;fill:#AAD47B;}
	.st14{display:inline;fill:#82BD5B;}
	.st15{display:inline;fill:#5BA63D;}
	.st16{display:inline;fill:#369121;}
	.st17{display:inline;fill:none;stroke:#000000;stroke-miterlimit:10;}
	.st18{fill:none;stroke:#4E4E4E;stroke-width:1.44;stroke-linejoin:round;stroke-miterlimit:10;}
</style>
<symbol  id="Interstate_Highway" viewBox="-9.6 -10.2 19.1 20.3">
	<g>
		<path class="st0" d="M0,9.2c0,0-3.5-4-7.6,0C-7.9,7.4-13.6-0.1,0-9.6c13.5,9.4,8,17,7.6,18.8C3.5,5.2,0,9.2,0,9.2z"/>
		<path class="st1" d="M8.9,4.5c0,2.2-0.9,2.9-1.3,4.7c-4-4-7.6,0-7.6,0s-3.5-4-7.6,0c-0.4-1.7-1.3-2.4-1.3-4.7L8.9,4.5z"/>
	</g>
</symbol>
<g id="US_Highway">
</g>
<g class="st2">
	<g class="st3">
		<rect x="517.3" y="320.8" class="st4" width="90.7" height="42.3"/>
		<text transform="matrix(1 0 0 1 545.5674 326.6478)"><tspan x="0" y="0" class="st5 st6 st7">ELYRIA </tspan><tspan x="-5.6" y="9.6" class="st5 st6 st7">SWANSEA</tspan></text>
	</g>
	<g class="st3">
		<rect x="438.4" y="328.8" class="st4" width="90.7" height="42.3"/>
		<text transform="matrix(1 0 0 1 454.7573 334.6493)" class="st5 st6 st7">GLOBEVILLE</text>
	</g>
	<g class="st3">
		<rect x="363.4" y="309.6" class="st4" width="90.7" height="42.3"/>
		<text transform="matrix(1 0 0 1 372.9188 315.4033)" class="st5 st6 st7">CHAFFEE PARK</text>
	</g>
</g>
<g class="st2">
	<circle class="st8" cx="978.8" cy="-41.8" r="7.7"/>
	<circle class="st9" cx="978.8" cy="-16.1" r="7.7"/>
	<circle class="st10" cx="978.8" cy="9.6" r="7.7"/>
	<circle class="st11" cx="978.8" cy="35.3" r="7.7"/>
	<circle class="st12" cx="978.8" cy="61.5" r="7.7"/>
	<circle class="st13" cx="978.8" cy="87.6" r="7.7"/>
	<circle class="st14" cx="978.8" cy="113.7" r="7.7"/>
	<circle class="st15" cx="978.8" cy="139.4" r="7.7"/>
	<circle class="st16" cx="978.8" cy="165.2" r="7.7"/>
	<rect x="993.6" y="-46.2" style="display:inline;fill:none;" width="112" height="15.5"/>
	<text transform="matrix(1 0 0 1 993.5623 -37.442)" class="st3" style="font-family:'Interstate-Light'; font-size:12px;">0-22,000</text>
	<rect x="1119.3" y="-40.9" style="display:inline;fill:none;" width="128.7" height="87.8"/>
	<text transform="matrix(1 0 0 1 1119.3123 -32.8658)" class="st3"><tspan x="0" y="0" style="font-family:'Interstate-Light'; font-size:11px;">Below 2015 </tspan><tspan x="0" y="13.2" style="font-family:'Interstate-Light'; font-size:11px;">self-sufficiency standard </tspan><tspan x="0" y="26.4" style="font-family:'Interstate-Light'; font-size:11px;">of $63,069 for family of </tspan><tspan x="0" y="39.6" style="font-family:'Interstate-Light'; font-size:11px;">4 in Denver County</tspan></text>
	<rect x="971" y="-77.6" style="display:inline;fill:none;" width="162.9" height="18.9"/>
	<text transform="matrix(1 0 0 1 971.0115 -67.4321)" class="st3" style="font-family:'Interstate-Regular'; font-size:14px;">Median Income (USD)</text>
	<rect x="993.6" y="-20.5" style="display:inline;fill:none;" width="112" height="15.5"/>
	<text transform="matrix(1 0 0 1 993.5623 -11.756)" class="st3" style="font-family:'Interstate-Light'; font-size:12px;">22,001-38,000</text>
	<rect x="993.6" y="5.2" style="display:inline;fill:none;" width="112" height="15.5"/>
	<text transform="matrix(1 0 0 1 993.5623 13.9301)" class="st3" style="font-family:'Interstate-Light'; font-size:12px;">38,001-53,000</text>
	<rect x="993.6" y="29.6" style="display:inline;fill:none;" width="112" height="15.5"/>
	<text transform="matrix(1 0 0 1 993.5623 38.3557)" class="st3" style="font-family:'Interstate-Light'; font-size:12px;">53,001-69,000</text>
	<rect x="993.6" y="58" style="display:inline;fill:none;" width="112" height="15.5"/>
	<text transform="matrix(1 0 0 1 993.5623 66.7426)" class="st3" style="font-family:'Interstate-Light'; font-size:12px;">69,001-84,000</text>
	<rect x="993.6" y="83.5" style="display:inline;fill:none;" width="112" height="15.5"/>
	<text transform="matrix(1 0 0 1 993.5623 92.2283)" class="st3" style="font-family:'Interstate-Light'; font-size:12px;">84,001-100,000</text>
	<rect x="993.6" y="109.2" style="display:inline;fill:none;" width="112" height="15.5"/>
	<text transform="matrix(1 0 0 1 993.5623 117.9946)" class="st3" style="font-family:'Interstate-Light'; font-size:12px;">100,001-120,000</text>
	<rect x="993.6" y="135" style="display:inline;fill:none;" width="112" height="15.5"/>
	<text transform="matrix(1 0 0 1 993.5623 143.7609)" class="st3" style="font-family:'Interstate-Light'; font-size:12px;">120,001-130,000</text>
	<rect x="993.6" y="161.6" style="display:inline;fill:none;" width="112" height="15.5"/>
	<text transform="matrix(1 0 0 1 993.5623 170.327)" class="st3" style="font-family:'Interstate-Light'; font-size:12px;">130,001-250,000</text>
	<polyline class="st17" points="1093.2,-47.5 1105.6,-47.5 1105.6,15.7 1093.2,15.7 	"/>
	<line class="st17" x1="1114.3" y1="-14.4" x2="1105.6" y2="-14.4"/>
</g>
<g>
	<polyline class="st18" points="419.5,511.5 416.3,503.2 414.9,498.6 410.6,486.2 409.5,483.8 409,481.9 405.8,475.1 404.1,472.4 
		403.6,471.6 403.3,471.1 401.7,468.1 401.4,467.3 400.4,465.7 400.4,465.2 400.1,464.9 399.8,464.3 399.6,464.1 399.3,463.3 
		398.5,461.9 398.2,461.7 396.9,459.2 395,455.7 393.6,453 391.8,449.8 390.7,448.2 388,444.4 387.2,443.1 385.8,440.9 385.6,440.6 
		385.3,440.1 384.2,438.7 383.4,437.7 381.8,435.5 379.1,432.5 378.3,431.7 376.9,430.7 376.4,430.4 375,429.6 373.4,428.8 
		371,427.7 370.7,427.7 370.2,427.4 369.9,427.4 366.7,426.3 363.7,425.5 360,424.2 355.4,423.4 352.1,422.8 349.2,422.8 
		348.9,422.8 348.6,422.8 343,422.8 342.7,422.8 341.9,422.8 338.4,422.8 330.6,422.8 329.2,422.8 327.6,422.8 325.2,422.8 
		323,422.3 320.1,421.8 319.5,421.5 318.7,421.2 317.9,420.7 316.3,419.6 309.8,415.6 309.3,415 308.8,414.8 308.5,414.8 
		307.7,414.2 305.5,412.9 303.6,411.8 299.9,409.4 298.8,408.8 298.5,408.6 298.3,408.3 295,406.4 292.9,404.2 290.7,401.8 
		289.4,400.2 288.8,399.7 286.9,397.2 286.1,396.4 285.6,395.9 285.3,395.6 284.2,394.3 283.2,393.2 280.7,390.5 279.1,388.9 
		278.1,387.5 277.5,387 277.5,386.7 276.4,385.7 272.9,381.9 272.1,380.8 268.9,377.3 267.8,376.2 267.5,376 266.5,374.9 
		265.1,373.5 264.6,373 264,372.7 263.2,372.2 263.2,371.9 262.7,371.6 262.2,371.4 261.9,371.4 261.3,371.1 260,370.6 259.7,370.6 
		258.7,370 258.4,370 257,369.5 256.5,369.5 256,369.2 255.7,369.2 255.1,368.9 254.1,368.4 253.3,368.1 252.7,367.6 251.9,366.8 
		251.4,366.5 251.1,366 250,364.4 249,361.9 248.7,361.7 247.9,360.1 247.6,359.5 247.1,358.2 246.8,357.9 244.9,354.4 244.9,354.1 
		244.4,353 244.1,352.2 243.6,351.4 243,350.1 242.8,349.5 242.5,349 242.2,348.5 237.6,339 237.6,338.8 236.8,336.9 235.8,335 
		233.9,333.1 231.4,330.9 229.3,329.1 226.9,326.6 225.5,325.3 223.6,323.1 222.3,321.5 220.9,319.9 219,317.7 216.4,315.6 
		216.1,315.3 214.2,312.9 212.8,311.3 212,309.9 211.8,309.7 211.8,309.4 211.5,309.1 211.5,308.8 211.2,308.6 211,308 210.7,307.8 
		209.9,305.9 208.8,302.4 208.3,301 207.7,298.6 207.5,297.8 206.4,293.8 205.8,292.1 205.8,289.7 205.8,288.4 205.8,287.3 
		206.1,285.9 206.4,284.9 206.7,283.8 207.5,281.9 208,280.3 208.5,278.7 208.8,277.6 209.1,276.5 209.1,275.7 209.3,274.9 
		209.3,274.6 209.3,273.8 209.3,272.7 209.6,272.2 209.3,271.7 209.3,270 209.3,267.1 209.3,266.8 209.1,266.3 209.1,264.9 
		208.5,263.8 208.5,263.3 208.3,262.8 208,262.5 208,262.2 207.7,262 207.5,261.4 205,258.4 204.8,257.9 204.2,257.4 204,257.1 
		203.7,256.8 203.7,256.6 202.3,254.9 201.5,253.9 200.2,251.2 200.2,250.4 199.9,249.3 199.9,248.5 199.9,247.7 200.2,246.1 
		200.2,245.5 200.7,243.6 201.3,241.7 201.8,240.4 203.1,236.4 203.4,236.1 203.4,235.5 203.4,235.3 203.7,234.7 204.8,232.8 
		205,232 205.8,231 206.1,230.7 206.1,230.4 206.4,230.4 206.7,230.2 206.7,229.9 207.7,228.8 209.1,227.2 210.4,226.1 210.7,225.8 
		211,225.6 211.2,225.3 211.8,224.8 212,224.5 212.3,224.2 212.8,223.7 215.5,221 216.9,219.9 216.9,219.6 217.4,219.4 218.2,218.6 
		219.9,217.2 220.1,216.7 221.2,215.9 222.8,214.3 223.4,214 225.5,211.8 225.8,211.6 227.4,210.2 228.2,209.7 229,209.1 
		229.3,208.6 229.8,208.3 230.4,207.8 231.2,207 231.7,206.4 233.1,205.1 233.3,204.5 234.4,203.2 235.8,200.8 235.8,200.5 
		236.8,198.6 237.1,197.8 237.9,196.5 239,195.4 240.1,194 241.1,193.2 241.4,193.2 242.2,192.4 243,192.2 244.1,191.6 244.4,191.3 
		244.6,191.3 244.9,191.1 245.2,190.8 245.7,190.8 246.8,190 247.6,189.7 250,188.4 250.3,188.1 250.6,188.1 252.2,187.3 252.5,187 
		252.7,187 253.3,186.5 254.1,186 255.4,184.9 257,183 258.4,181.4 259.2,180.3 260.3,178.4 260.8,176.8 261.3,175.7 261.9,173 
		262.4,170.9 262.4,169.8 262.7,167.9 262.7,164.9 262.7,164.7 262.7,164.1 262.7,156.8 262.7,156.3 262.7,154.2 262.7,153.9 
		262.7,153.6 262.7,153.3 262.7,152.3 262.7,152 262.7,151.7 262.7,151.5 262.7,150.6 262.7,150.4 262.7,149 262.7,143.1 
		262.7,142.8 262.7,140.9 262.7,138.8 262.7,138 262.7,132.6 262.7,131.5 263,130.4 263,129.1 263.2,127.7 263.5,127.5 263.5,126.4 
		264,123.7 264,122.9 264.8,119.4 265.4,115.9 265.9,113.2 266.2,111.3 266.7,109.4 267,108.1 267.5,106.5 268.6,102.7 268.9,102.4 
		270,99.4 271.3,95.7 272.4,93 272.7,92.4 273.5,90.6 274,89.5 274,88.9 274.5,87.6 274.8,86.8 275.1,86.2 275.1,85.4 275.4,84.4 
		275.6,83.8 275.6,83.3 275.9,82.5 275.9,81.9 275.9,81.7 275.9,81.4 276.2,78.4 276.2,71.7 276.2,65.5 276.2,63.9 276.2,62.3 
		276.2,61.4 276.2,55.8 276.2,49.6 276.4,47.7 276.4,46.9 276.4,45.3 276.4,45 276.4,38 276.4,37.7 276.4,37.5 276.7,34.8 276.7,34 
		276.7,32.9 277.2,30.7 277.5,30.5 277.8,29.1 278.6,25.9 278.9,25.1 278.9,24.5 279.1,22.9 279.1,21.6 279.1,20.8 279.1,19.9 
		279.1,19.4 279.1,18.9 279.1,18.6 279.1,18.1 279.1,17.8 279.1,17.5 278.9,16.4 278.9,15.9 278.6,15.6 278.6,14.8 278.1,12.7 
		277.8,12.4 277.2,10.8 277.2,10.5 277,10.2 277,10 276.2,7.5 275.9,6.7 275.6,5.4 275.1,4 274.8,2.4 274.8,1.1 274.5,0.5 274.5,0 	
		"/>
	<polyline class="st18" points="419,511.5 418.4,509.9 418.2,509.6 416.3,503.7 415.5,501.8 415.2,500.7 413.8,497.2 413.6,496.1 
		413.6,495.9 412.8,494.3 411.1,489.1 410.3,487.3 410.1,485.9 409.8,485.4 409,483.5 407.9,481.1 407.6,480 407.4,479.7 
		406.6,478.4 406,477 403.9,473 403.3,471.6 403.1,471.1 402.8,471.1 402.3,470 399.6,465.2 399.6,464.9 398.8,463.5 398.8,463.3 
		398.5,463 396.6,459.8 393.1,453 392.6,452.2 392.3,451.7 392.3,451.4 392,451.4 392,451.1 391.8,450.6 391.5,450.1 389.6,447.6 
		389.1,446.8 388,445.2 387.4,444.7 386.9,443.9 386.9,443.3 386.6,443.1 385.3,441.4 385,440.9 384.7,440.6 384.5,440.4 
		384.5,440.1 383.4,438.7 383.1,438.2 382.3,436.9 382.1,436.6 381.2,435.5 380.4,434.7 379.9,433.9 379.4,433.4 378.8,433.1 
		378.5,432.5 378.3,432.3 377.7,432 377.5,431.7 377.2,431.5 376.9,431.5 376.7,431.2 376.4,430.9 375.6,430.4 374.2,429.6 
		373.7,429.3 372.9,429 372.1,428.8 371.5,428.5 371.3,428.5 371,428.2 370.7,428.2 370.5,428.2 370.2,428 365.6,426.6 360.8,425.3 
		360,425 358.1,424.5 354.3,423.7 352.1,423.4 351.6,423.4 350.5,423.4 349.4,423.4 348.9,423.4 348.6,423.4 348.4,423.4 
		347.8,423.4 347,423.4 345.7,423.4 344.9,423.4 344.3,423.4 342.7,423.4 342.4,423.4 341.9,423.4 341.6,423.4 341.1,423.4 
		339.2,423.1 338.7,423.1 337.9,423.1 336.5,423.1 332.5,423.4 331.1,423.4 330.6,423.4 329.5,423.4 329.2,423.4 326,423.4 
		324.7,423.1 323,423.1 321.2,422.6 318.7,421.8 318.7,421.5 317.7,421.2 316.6,420.4 316.3,420.1 310.7,416.6 309,415.6 
		308.8,415.6 308.5,415.3 308.2,415.3 306.6,414.2 306.1,413.9 306.1,413.7 305.8,413.7 305.5,413.4 305.3,413.1 303.9,412.3 
		303.4,412.1 302.3,411.5 299.6,409.6 298.8,409.4 298.5,409.1 298.3,408.8 298,408.8 298,408.6 297.2,408.3 296.9,408 295.6,407.2 
		294.8,406.4 293.4,405.3 292.6,404.5 291.8,404 291,403.2 290.7,402.6 290.2,402.4 288.8,400.7 288.6,400.2 288,399.7 288,399.4 
		286.1,397.5 286.1,397.2 285.6,397 285.3,396.4 285.1,396.4 284.2,395.4 283.7,394.5 283.4,394.5 283.2,394 282.1,392.9 
		281.8,392.7 279.7,390.2 278.9,389.4 278.3,388.9 278.1,388.6 278.1,388.3 277.8,388.3 277.5,388.1 277.5,387.8 277,387.3 
		276.2,386.2 274.5,384.6 274,383.8 272.9,382.7 272.7,382.4 270.8,380.3 268.6,378.1 267.5,377 267.3,376.8 266.7,376.2 
		266.2,375.7 265.1,374.6 264,373.5 263.2,373 262.4,372.4 261.6,371.9 260.8,371.6 260,371.4 259.7,371.4 259.7,371.1 259.5,371.1 
		259.2,371.1 258.7,370.8 257.6,370.6 257,370.3 256.8,370.3 255.7,369.8 255.4,369.8 254.9,369.8 254.6,369.8 254.1,369.5 
		253.8,369.5 253.3,369.2 252.2,368.9 251.1,368.4 250.8,368.1 250.3,367.9 250,367.6 249.8,367.3 249.5,367.1 249,366.5 
		248.7,366.2 248.1,365.4 248.1,365.2 247.9,364.9 247.6,364.1 247.3,363.6 246.8,362.2 246.3,360.3 245.5,357.1 245.2,356 
		244.6,354.4 244.4,354.4 244.4,353.9 244.1,353.3 243.3,352 243.3,351.4 243,350.9 242.2,349.5 242.2,349.3 241.9,349 241.9,348.5 
		241.1,346.8 240.6,345.8 239,342.5 238.4,341.2 237.4,339.3 237.4,339 237.1,339 236.6,338 235.8,336.6 235.5,335.8 234.9,335.3 
		234.7,334.7 234.1,334.2 233.3,333.4 230.9,331.2 228.7,329.6 227.7,328.5 227.1,328 225.8,326.4 224.7,325.3 223.6,323.9 
		221.7,321.5 221.5,321.2 220.9,320.4 220.7,320.2 219.9,319.4 218.8,318 217.4,316.9 217.2,316.7 216.4,316.1 216.4,315.9 
		216.1,315.6 215.3,314.8 215,314.5 214.7,314.5 214.5,314 213.9,313.4 212.8,312.1 212.6,311.5 212.3,311.3 212,311 211.8,310.5 
		211.8,310.2 211.2,309.7 211.2,309.4 211,309.1 210.7,308.6 210.4,308 210.4,307.8 209.6,306.4 209.1,304.5 208.5,303.2 
		208.5,302.9 208.3,302.1 208,301.8 207.7,301 207.2,298.6 206.9,297.8 206.9,297.3 206.7,297 206.4,295.9 206.4,295.4 206.1,294.8 
		205.8,293.8 205.8,293.2 205.6,293.2 205.6,292.9 205.6,292.7 205.6,292.4 205.6,291.9 205.3,291.3 205.3,290.5 205.3,290 
		205.3,288.6 205.3,287.6 205.3,287 205.6,285.7 205.8,284.3 206.1,283.2 206.7,282.2 207.2,280.8 207.7,279.7 208,278.7 208,278.4 
		208.5,276.8 208.5,276.5 208.5,276.2 208.5,276 208.8,275.2 208.8,274.9 208.8,274.6 208.8,274.3 209.1,273.5 209.1,273.3 
		209.1,273 209.1,272.2 209.1,271.9 209.1,271.1 209.1,270.6 209.1,269.8 209.1,269.2 209.1,269 208.8,267.6 208.8,267.3 
		208.8,267.1 208.8,266.8 208.8,266.5 208.8,266.3 208.8,266 208.5,265.5 208.5,265.2 208.3,264.6 208.3,263.8 208,263.8 208,263.3 
		207.7,263 207.7,262.8 207.5,262.5 207.5,262.2 207.2,262.2 207.2,261.7 206.1,260.3 205.3,259.3 204.8,258.7 204.5,258.4 
		204.2,258.2 204,257.9 203.7,257.6 203.7,257.4 203.4,257.1 202.9,256.6 202.1,255.2 201.5,254.9 201.5,254.7 201.3,254.1 
		201,253.6 200.7,253.1 200.2,252 199.9,251.4 199.9,251.2 199.6,250.6 199.6,249.6 199.4,248.7 199.4,247.9 199.4,247.1 
		199.6,246.3 199.6,245.5 200.2,244.4 200.7,242 202.6,236.6 202.9,236.1 202.9,235.8 202.9,235.5 203.1,234.7 203.4,234.5 
		204.2,232.8 204.5,232 204.8,231.8 205,231.5 205.6,230.7 205.6,230.4 205.8,230.4 205.8,230.2 206.7,229.1 206.9,228.8 
		208.5,227.2 209.1,226.9 209.9,226.1 210.2,225.8 210.7,225.3 211,225 211,224.8 211.2,224.8 211.5,224.2 211.8,224.2 212,224 
		212.3,223.7 212.6,223.4 213.1,222.9 213.4,222.6 213.9,222.1 215.3,220.7 215.8,220.4 215.8,220.2 216.4,219.6 216.6,219.6 
		216.6,219.4 216.9,219.1 217.2,219.1 218,218.3 219.6,216.7 219.9,216.4 220.1,216.1 220.4,215.6 222.3,214.3 222.5,214 225,211.6 
		225.2,211.6 225.2,211.3 226.1,210.7 226.1,210.5 226.3,210.2 226.9,209.7 227.1,209.7 227.4,209.4 227.7,209.1 228.5,208.3 
		228.7,208.1 229,207.8 229,207.5 229.3,207.5 229.6,207.2 230.1,206.4 230.4,206.2 231.2,204.8 234.1,200.5 234.9,199.2 
		235.2,198.9 235.2,198.6 236,197.8 237.6,195.4 237.9,195.1 238.4,194.3 239,193.8 239.5,193.2 240.1,192.7 240.9,192.2 
		241.7,191.6 243.3,190.8 243.8,190.5 244.1,190.5 244.1,190.3 244.4,190.3 244.6,190.3 244.9,190 247.3,188.6 250.3,187.3 
		250.6,187 251.4,186.5 252.7,185.7 253,185.7 253,185.4 253.3,185.4 254.9,184.1 255.7,183.3 256.5,182.2 257,181.6 257.6,181.1 
		258.4,180 258.4,179.8 259.7,177.3 259.7,177.1 260.3,175.7 260.5,175.4 260.8,174.1 261.1,173 261.3,171.9 261.6,169.8 261.9,169 
		261.9,167.6 261.9,167.4 261.9,164.9 261.9,164.1 261.9,163.9 261.9,162.5 261.9,158.2 261.9,156.8 261.9,156.3 261.9,155.8 
		261.9,154.4 261.9,153.9 261.9,153.6 261.9,153.3 261.9,153.1 261.9,152.5 261.9,152.3 261.9,152 261.6,151.2 261.9,151.2 
		261.9,150.6 261.6,150.1 261.9,148.8 261.9,145.8 261.9,144.2 261.9,143.1 261.9,142.8 261.9,139.6 261.9,139.3 261.9,139.1 
		261.9,138.8 261.9,137.7 261.9,137.4 261.9,137.2 261.9,135.3 261.9,134.5 261.9,133.1 261.9,131.5 262.2,129.4 262.2,129.1 
		262.2,128.6 262.2,128 262.4,127.2 262.7,126.4 263,124.5 263,123.7 263.2,122.9 264,118.6 264,117.2 264.6,114.3 264.8,112.9 
		265.1,111.6 265.4,110.8 265.4,110 265.7,109.1 266.2,107.8 266.7,105.6 267.3,103.2 267.8,102.4 268.1,101.3 270.5,94.9 
		271.6,92.4 272.1,91.4 272.1,90.8 272.7,90 272.7,89.5 272.9,89.2 273.2,88.7 273.5,87.9 273.7,86.2 274,85.4 274.3,83.8 
		274.5,83.3 274.8,82.2 274.8,81.9 274.8,81.1 275.1,80.6 275.1,80 275.1,77.6 275.1,72 275.1,71.7 275.1,69 275.1,64.7 275.1,61.4 
		275.1,55.8 275.1,50.4 275.1,49.3 275.1,48.5 275.1,48.2 275.1,47.7 275.1,46.4 275.1,46.1 275.1,45.8 275.1,38.8 275.1,38.5 
		275.1,38.3 275.1,33.4 275.1,30.7 275.1,30.5 275.1,28.6 275.1,26.9 275.1,24.3 275.1,22.4 275.1,21.3 275.1,19.9 275.1,19.7 
		275.1,19.1 274.8,18.6 274.8,18.3 274.8,16.4 274.8,15.4 274.8,14.3 274.5,12.9 274.5,11.9 274.5,10.2 274.3,8.1 274.3,6.2 
		274.3,5.4 274,2.4 274,0.3 274,0 	"/>
	<polyline class="st18" points="239,194.6 240.1,193.5 240.6,193 240.9,193 241.1,192.4 241.7,192.4 242.2,191.9 243.3,191.3 
		244.1,191.1 244.4,190.8 244.6,190.8 244.9,190.5 247.1,189.5 249,188.6 250.3,187.8 250.6,187.6 252.2,186.8 252.7,186.2 
		253.8,185.7 255.4,184.3 257,182.5 257.8,181.4 258.9,179.8 259.7,178.4 260.3,177.1 261.1,175.2 261.3,174.1 261.9,171.7 
		262.2,169.2 262.2,167.9 262.2,166.8 262.2,164.9 262.2,164.7 262.2,164.1 262.2,156.8 262.2,156.3 262.2,154.2 262.2,153.9 
		262.2,153.6 262.2,153.3 262.2,152.3 262.2,151.2 262.2,150.1 262.2,146.9 262.2,143.1 262.2,142.8 262.2,139.1 262.2,137.7 
		262.4,134.5 262.4,133.1 262.4,132.1 262.4,130.7 262.7,129.1 263,127.7 263,127.5 263.2,125.6 263.8,123.2 263.8,122.9 
		264.3,119.4 264.8,115.9 265.4,112.9 266.2,109.7 266.2,109.1 266.5,108.1 267,105.9 267.5,104.3 268.1,102.9 268.4,102.4 
		269.4,99.4 270.2,97.3 271.9,93.5 272.1,92.4 272.7,90.8 273.5,89.5 273.5,89.2 274.3,87 274.8,84.9 275.1,83.3 275.1,82.5 
		275.4,81.9 275.4,81.7 275.6,79.8 275.6,77.9 275.6,75.7 275.6,71.7 275.6,68.2 275.6,64.9 275.6,62 275.6,61.4 275.6,55 
		275.6,50.7 275.6,49.9 275.6,48.2 275.6,48 275.6,47.2 275.6,45.8 275.6,45.5 275.9,41 275.9,38.3 275.9,38 275.9,37.7 275.9,35 
		275.9,30.7 275.9,30.5 275.9,21.6 275.9,19.9 	"/>
	<polyline class="st18" points="470.2,157.9 469.3,157.7 468.8,157.7 468.3,157.4 467.7,157.4 466.9,157.1 466.4,156.8 465.8,156.6 
		465.3,156.3 464.8,156 464.2,155.8 463.4,155.2 462.6,154.7 462.1,154.2 461.5,153.6 461,153.1 460.5,152.3 459.9,151.7 
		459.6,151.2 459.1,150.6 458.8,149.8 455.9,144.2 455.6,143.6 454.5,142 452.6,138.3 449.9,133.4 449.4,132.6 449.4,132.3 
		449.1,132.1 448.9,131.8 448.9,131.5 448.6,131.2 447.8,130.4 447.3,129.9 446.7,129.4 445.9,128.6 443.2,126.7 442.4,126.1 
		440.5,124.8 439.4,124 438.6,123.4 437.3,122.4 435.7,121.3 432.7,119.1 431.9,118.6 430,117.2 429.5,116.7 427.9,115.6 
		427.3,115.1 426.5,114.8 426,114.3 425.4,114 424.4,113.5 423.3,113.2 422.7,112.9 421.9,112.7 421.4,112.4 420.8,112.4 420,112.1 
		419,112.1 417.9,111.8 417.3,111.8 416.3,111.8 411.4,111.8 410.1,111.8 409.3,111.6 408.5,111.6 408.2,111.6 407.1,111.3 
		406.3,111.3 405.2,111 404.4,111 403.3,110.5 402.3,110.2 400.6,109.7 400.1,109.4 399.3,109.1 398.5,108.6 397.7,108.3 
		396.3,107.5 395.3,107 394.4,106.2 393.4,105.4 393.1,105.1 391.8,104 390.1,102.1 389.6,101.9 389.3,101.6 388.8,100.8 
		386.1,98.4 384.7,96.8 384.5,96.5 383.9,95.9 383.4,95.4 382.9,94.9 382.1,94.1 379.6,91.4 378.3,90 376.9,88.7 375.9,87.9 
		375.6,87.3 374.5,86.5 374.5,86.2 374.2,86 372.6,84.4 370.7,82.7 368.6,80.8 367.8,80 367.5,79.8 367.2,79.2 366.7,79 366.4,78.7 
		365.9,78.2 365.1,77.3 364,76.3 362.7,74.9 361.3,73.6 360.5,72.8 359.1,71.4 357.8,70.1 355.1,67.4 354.3,66.8 353.2,65.8 
		350.5,63.3 349.7,62.3 349.4,62.3 349.2,62 348.6,61.2 347.8,60.4 345.1,57.9 344.9,57.7 344.6,57.4 344.1,57.1 344.1,56.9 
		343.8,56.6 343,56.1 341.9,55 339.2,52.3 337.9,50.7 336.2,49.3 334.4,47.7 333.3,46.6 327.4,40.7 327.1,40.4 324.4,37.7 317.7,31 
		317.4,30.7 317.1,30.5 316.8,30.2 316.6,29.6 316,29.4 314.2,27.8 311.7,25.9 310.9,25.6 310.4,25.1 310.1,24.8 309.8,24.8 
		309.3,24.5 308.5,24 307.1,23.2 306.1,22.6 304.2,21.8 302.8,21.3 301.8,21 300.4,20.5 298.3,19.9 296.6,19.4 294.5,19.1 
		292.3,18.9 290.2,18.9 288.6,18.9 286.4,18.6 286.1,18.6 284.5,18.6 284,18.6 281.8,18.3 279.9,18.3 279.1,18.1 278.6,18.1 
		278.3,18.1 278.1,18.1 277.5,18.1 277.2,18.1 276.7,18.1 275.9,18.3 275.6,18.3 274.8,18.3 	"/>
	<polyline class="st18" points="275.1,19.9 275.9,19.9 276.7,20.2 277,19.9 278.9,19.9 279.1,19.9 279.9,19.9 280.2,19.9 
		284.8,19.9 286.4,19.9 289.6,19.9 293.9,20.2 295.6,20.2 296.4,20.5 297.7,20.5 299.6,21 301.8,21.8 303.4,22.4 304.7,22.9 
		306.3,23.7 308.2,24.8 309.3,25.3 309.6,25.6 309.8,25.6 310.1,25.9 310.9,26.4 312.5,27.5 313.6,28.6 315,29.6 315.2,29.9 
		315.5,30.2 315.8,30.5 316.3,31 316.6,31.3 324.1,38.3 327.4,41.2 329.8,43.7 333.3,46.9 335.2,49 338.1,51.7 343,56.6 343.5,57.1 
		343.8,57.4 344.1,57.4 344.1,57.7 344.3,57.9 344.9,58.2 345.1,58.5 347.8,61.2 349.2,62.5 349.4,62.8 355.1,68.2 357.5,70.6 
		361.3,74.4 363.5,76.5 364.8,77.6 366.2,79 366.7,79.5 367.2,80 367.5,80.3 372.6,85.4 374.2,86.8 374.5,87 374.5,87.3 378.3,91.1 
		381.8,94.6 382.9,95.9 383.4,96.2 383.9,97 384.2,97.3 384.7,97.8 386.6,99.7 389.3,102.4 389.6,102.7 390.7,104 391.8,105.1 
		392.8,105.6 393.6,106.5 394.2,107 395.3,107.5 396.1,108.1 396.9,108.6 397.9,109.1 399,109.7 399.8,110 400.6,110.5 401.7,110.8 
		403.1,111.3 403.9,111.6 405,111.6 405.8,111.8 406.6,112.1 407.1,112.1 407.9,112.1 409.5,112.4 411.4,112.4 413,112.4 
		415.5,112.4 416.3,112.4 417.3,112.4 418.2,112.7 419.2,112.7 420,112.9 420.8,112.9 421.4,113.2 422.2,113.5 422.7,113.5 
		423.3,113.7 424.1,114.3 424.6,114.3 425.2,114.5 426.2,115.3 426.8,115.6 427.9,116.4 428.4,116.7 428.9,117 430,118 432.7,119.9 
		433.5,120.5 434.1,120.7 435.1,121.5 435.7,122.1 445.4,129.1 447,130.4 447.3,130.7 447.5,131 448.1,131.8 448.6,132.3 
		448.9,132.6 449.4,133.7 449.4,133.9 449.7,134.5 451.6,137.7 452.1,139.1 452.6,139.6 453.4,141.5 454,142 454.3,142.6 
		454.8,143.9 455.1,144.2 455.1,144.5 455.3,144.7 455.9,145.8 457.8,149 458.3,150.4 459.1,151.7 459.4,152.3 459.4,152.5 
		460.2,153.6 460.7,154.4 461.3,155 461.8,155.8 462.6,156.3 463.1,156.8 464,157.4 464,157.7 464.2,157.7 464.5,157.9 467.2,159.3 
		469.3,160.1 472.3,161.2 474.5,161.4 476.9,161.4 480.7,161.7 496,161.4 	"/>
	<polyline class="st18" points="0,143.4 1.3,143.1 4.6,143.4 6.7,143.6 9.7,143.9 10.8,144.2 12.7,144.5 14.8,144.7 16.7,144.7 
		20.5,144.5 29.4,144.7 33.9,144.5 35.6,144.5 38.8,144.2 41,144.2 41.5,144.2 42.3,143.9 43.1,143.6 44.2,143.4 45.8,142.8 
		47.2,142.6 48.2,142 50.1,141.5 50.4,141.5 50.7,141.2 50.9,141.2 51.2,141.2 51.5,140.9 57.4,139.3 61.4,138 61.7,137.7 63,137.4 
		65.5,136.6 72.2,134.7 72.5,134.7 73.6,134.5 73.8,134.5 74.9,134.5 76.2,134.7 77.9,135.3 78.9,136.1 80.3,137.2 80.6,137.4 
		81.9,138.8 82.2,139.1 83.5,140.4 85.1,141.8 87,143.1 88.4,143.6 90,144.2 92.4,144.7 94.3,145 102.4,145.3 114.8,145.3 
		119.9,145.3 121,145 121.8,144.7 122.9,144.5 123.4,144.5 124.2,143.9 124.7,143.6 128,141.5 128.2,141.2 129.3,140.9 130.1,140.7 
		130.7,140.7 131.2,140.4 132.3,140.4 133.1,140.4 133.6,140.4 135,140.7 135.5,140.9 136.3,141.2 136.9,141.5 137.7,142 
		138.5,142.6 140.4,143.6 141.5,144.2 142.5,144.5 143.1,144.5 143.3,144.7 143.6,144.7 144.1,144.7 152.5,144.7 160.8,144.7 
		163,145 163.5,145 166,145 168.1,145 169.7,144.7 171.4,144.2 172.4,143.9 175.9,143.4 177.8,143.1 179.4,142.8 181.1,142.6 
		182.1,142.3 182.9,142.3 183.8,142.3 184,142.3 184.3,142.3 184.6,142.3 185.9,142.3 186.7,142.3 188.1,142.6 190.5,143.1 
		191.3,143.1 191.8,143.4 193.7,143.9 194.5,143.9 195.1,143.9 195.9,144.2 196.4,144.2 199.4,144.2 203.7,144.2 204.5,144.2 
		214.5,144.2 217.2,144.5 218.8,144.7 219.6,144.7 222,145 223.9,145.3 224.7,145.3 225,145.3 225.2,145.3 226.1,145.3 227.9,144.7 
		229.8,144.5 231.4,144.2 232,144.2 232.5,143.9 232.8,143.9 233.6,144.2 234.4,144.2 236,144.5 238.4,145.5 240.3,146.3 
		242.5,146.9 242.8,146.9 243.3,147.1 243.6,147.4 243.8,147.4 244.4,147.7 244.9,147.7 245.2,147.7 245.2,148 245.5,148 
		246.8,148.5 247.9,148.8 248.1,149 248.7,149 249.2,149.3 250.3,149.8 250.6,149.8 251.4,150.1 252.2,150.4 253.8,151.2 256.2,152 
		256.5,152 257.6,152.3 257.8,152.5 258.1,152.5 259.7,153.1 260,153.1 260.5,153.1 260.8,153.3 261.3,153.3 261.6,153.3 
		261.9,153.6 262.2,153.6 262.4,153.6 262.7,153.6 263.2,153.6 264.3,153.9 264.6,153.9 264.8,154.2 265.1,154.2 265.9,154.2 
		266.7,154.2 268.1,154.4 268.4,154.4 270,154.4 270.5,154.4 274.3,154.4 275.9,154.4 277,154.4 284.8,155 286.1,155 287.2,155 
		287.8,155 291.3,154.7 292.6,154.7 292.9,154.7 293.1,154.7 293.4,154.7 295.3,154.4 299.1,154.2 300.1,154.2 301.5,154.2 
		302.8,153.9 303.1,153.9 304.7,153.9 305.8,153.6 306.6,153.6 309.3,153.6 310.9,153.6 311.5,153.6 313.6,153.6 316.3,153.6 
		316.6,153.6 317.7,153.6 319.5,153.3 320.9,153.6 321.7,153.6 322,153.6 322.2,153.6 322.5,153.6 325.7,153.6 326.5,153.6 
		326.8,153.6 327.1,153.6 327.9,153.6 330.1,153.6 332.5,153.3 335.2,153.3 336.5,153.3 337.6,153.3 339.2,153.3 340.6,153.3 
		340.8,153.3 341.6,153.3 343.3,153.3 348.6,153.3 353.5,153.3 355.9,153.3 357.8,153.3 359.1,153.3 360,153.3 368.3,153.3 
		368.6,153.3 368.8,153.3 369.1,153.3 371,153.3 372.1,153.3 373.4,153.3 374.5,153.1 375.9,153.1 376.4,153.1 377.2,153.1 
		379.6,153.1 385,152.8 385.8,152.8 386.9,153.1 387.7,153.1 388.2,153.1 388.8,153.1 389.6,153.3 390.9,153.6 406,157.4 
		406.8,157.4 407.9,157.7 408.5,157.7 409.3,157.9 410.3,157.9 411.7,157.9 429.2,157.7 430.5,157.7 440.2,157.7 441.9,157.7 
		443.2,157.7 449.4,157.7 449.7,157.7 453.7,157.7 454.8,157.7 455.3,157.7 457,157.4 462.1,157.4 464,157.7 464.2,157.7 
		466.1,157.7 466.4,157.7 468.3,157.7 470.2,157.9 496.3,160.6 	"/>
	<polyline class="st18" points="496.3,161.2 493.1,160.6 492.2,160.6 485.2,159.8 483.4,159.8 480.1,159.3 477.4,159 469.9,158.2 
		469.3,158.2 467.2,158.2 466.7,157.9 465.3,157.9 465,157.9 464.8,157.9 464.5,157.9 464.2,157.9 463.1,157.9 462.9,157.9 
		461.8,157.9 458.6,157.9 457.2,157.9 457,157.9 456.7,157.9 455.9,157.9 455.6,157.9 455.3,157.9 454.5,157.9 454.3,157.9 
		453.2,157.9 450.5,157.9 449.7,157.9 449.4,157.9 448.1,157.9 444.3,157.9 443.2,157.9 442.9,157.9 442.4,157.9 442.1,157.9 
		441.9,157.9 441.1,157.9 440.8,157.9 438.6,157.9 431.4,158.2 429.2,158.2 426.2,158.2 424.9,158.2 415.2,158.2 412.8,158.2 
		411.1,158.2 409.8,158.2 408.5,158.2 408.2,158.2 407.4,157.9 406.8,157.9 405.8,157.7 404.4,157.4 392.3,154.2 390.7,153.9 
		389.9,153.6 389.1,153.6 388.2,153.3 388,153.3 387.2,153.3 386.6,153.3 386.1,153.3 385.6,153.3 379.6,153.3 377.5,153.3 
		375,153.6 374.5,153.6 373.4,153.6 372.6,153.6 371,153.6 370.2,153.6 368.8,153.9 368.6,153.9 368.3,153.9 367.8,153.9 367,153.9 
		364.5,153.9 363.7,153.9 363.2,153.9 360.8,153.9 360,153.9 359.7,153.9 358.1,153.9 357.8,153.9 357.3,153.9 356.5,153.9 
		356.2,153.9 355.9,153.9 355.4,153.9 353.8,153.9 353.5,153.9 353,153.9 351.3,153.9 350.8,153.9 350.5,153.9 348.9,153.9 
		348.6,153.9 347.6,153.9 344.6,153.9 343.8,153.9 343.5,153.9 342.7,153.9 342.4,153.9 341.6,153.9 341.1,153.9 340,153.9 
		339.5,153.9 339.2,153.9 338.9,153.9 338.1,153.9 337.9,153.9 337.6,153.9 336.8,153.9 336.5,153.9 336.2,153.9 335.4,153.9 
		335.2,153.9 334.1,153.9 332.7,153.9 332.5,153.9 330.3,153.9 330.1,153.9 327.9,153.9 327.4,153.9 327.1,153.9 326.3,153.9 
		325.7,153.9 322.5,153.9 322.2,153.9 322,153.9 321.7,153.9 321.4,153.9 320.9,153.9 320.6,153.9 320.4,153.9 320.1,153.9 
		319.5,153.9 317.1,153.9 316.3,153.9 313.6,154.2 311.2,154.2 310.9,154.2 310.7,154.4 309.8,154.4 309.3,154.4 309,154.4 
		307.4,154.4 307.1,154.7 306.6,154.7 305,154.7 304.7,154.7 304.5,155 304.2,155 303.9,155 303.1,155 302.8,155 302.6,155 
		301.5,155 301.2,155 299.3,155.2 299.1,155.2 296.4,155.2 294.8,155.5 293.7,155.5 292.3,155.5 292.1,155.5 291.8,155.5 
		291.5,155.8 291.3,155.8 290.4,155.8 290.2,155.8 289.9,155.8 289.4,155.8 288,155.8 287.8,155.8 287.2,155.8 286.7,155.8 
		286.1,155.8 285.3,155.8 285.1,155.8 284.8,155.8 283.7,155.8 283.4,155.8 282.1,155.5 281.3,155.5 280.7,155.5 280.5,155.5 
		279.9,155.5 278.9,155.2 278.3,155.2 277.5,155 276.7,155 275.4,155 271.9,155 270,155 269.2,155 268.6,155 267.5,154.7 
		266.5,154.7 265.1,154.4 264.8,154.4 264.6,154.4 264.3,154.4 264,154.4 262.7,154.2 262.4,154.2 262.2,154.2 261.9,153.9 
		261.6,153.9 260.8,153.6 260.5,153.6 260.3,153.6 259.7,153.3 258.9,153.1 258.1,153.1 257.6,152.8 256.2,152.3 252.7,151.2 
		252.2,150.9 251.9,150.9 250.6,150.4 250,150.4 248.7,149.6 248.1,149.6 247.6,149.3 246.8,149 245.7,148.8 245.5,148.5 
		245.2,148.5 244.9,148.5 244.6,148.2 244.4,148.2 244.1,148 243.8,148 243.6,148 242.8,147.7 242.2,147.4 240.9,146.9 240.3,146.9 
		239.3,146.3 236.3,145.5 235.8,145.3 235.2,145 234.7,144.7 234.4,144.7 233.9,144.5 233.3,144.5 232.8,144.5 232.2,144.5 
		231.4,144.7 230.4,144.7 228.2,145 227.1,145.3 225.5,145.5 225.2,145.5 225,145.5 224.4,145.5 223.6,145.5 220.9,145.3 218.5,145 
		217.4,144.7 216.9,144.7 216.4,144.7 215,144.7 214.5,144.7 212.6,144.7 211.2,144.5 207.7,144.5 206.4,144.5 204.8,144.5 
		204.5,144.5 203.4,144.5 200.5,144.5 199.4,144.5 197.8,144.5 197.2,144.5 196.1,144.5 195.3,144.5 194.5,144.5 193.7,144.2 
		193.2,144.2 192.6,143.9 191.8,143.6 191.6,143.6 190.2,143.4 189.9,143.4 189.4,143.1 188.3,143.1 187.5,142.8 186.2,142.8 
		185.6,142.8 185.4,142.8 184.8,142.8 184.6,142.8 184,142.8 183.8,142.8 182.7,142.8 180.8,143.1 180,143.1 178.9,143.1 
		178.4,143.4 177.8,143.4 177,143.6 176.7,143.6 176.5,143.6 175.4,143.9 174.1,144.2 171.6,144.7 171.4,144.7 170.5,144.7 170,145 
		168.1,145.3 167.3,145.3 166.8,145.5 166,145.5 165.2,145.5 163.5,145.3 163,145.3 162.7,145.3 162.2,145.3 161.7,145.3 159.2,145 
		158.7,145 152.2,145 146.8,145 144.7,145 143.9,145 143.1,145 142.5,145 141.7,144.7 141.2,144.5 140.6,144.2 139.8,143.9 
		139.3,143.4 138.5,142.8 137.7,142.3 136.6,141.8 135.8,141.5 135,141.2 133.9,140.9 133.6,140.9 132.8,140.7 132.3,140.7 
		131.8,140.7 131.2,140.9 130.9,140.9 130.7,140.9 129.6,141.2 129.1,141.5 128.8,141.5 128,141.8 127.4,142.3 126.1,143.1 
		124.5,144.2 123.7,144.7 123.4,144.7 123.1,145 122.9,145 121.8,145.3 121.5,145.3 120.2,145.5 118,145.5 114.8,145.5 102.4,145.8 
		94.3,145.5 93,145.3 91.3,145 89.2,144.7 87,143.9 86.2,143.6 85.4,143.4 84.3,142.8 82.2,141.8 81.9,141.5 81.4,141.2 80.3,140.7 
		80,140.4 79.8,140.1 77.9,139.1 77.1,138.8 74.9,137.7 73.6,137.4 72.2,137.2 71.1,137.2 66.5,137.2 65.5,137.4 64.9,137.4 
		61.7,138.5 61.4,138.8 58.2,139.9 52.8,141.5 52.5,141.5 51.2,142 50.9,142 49.8,142.3 47.4,143.1 46.1,143.4 44.7,143.9 
		43.4,144.5 42,144.7 41,145 39.1,145.3 37.2,145.3 26.1,145.3 25.1,145 20.5,145.3 18.1,145.3 16.7,145.3 15.1,145.3 10.8,144.5 
		4.6,143.9 3,143.6 0,143.9 	"/>
	<polyline class="st18" points="66.5,137.2 68.7,136.9 70.1,136.6 71.7,136.6 74.4,136.4 75.7,136.4 76.8,136.1 78.9,136.1 
		79.5,135.8 80,135.8 82.7,135 83,135 85.7,134.5 87,133.9 87.3,133.9 89.2,133.4 91.1,132.6 92.1,131.8 93,131.5 95.4,129.9 
		95.6,129.6 96.5,129.4 97,128.8 98.1,128 99.1,126.9 100.5,125.9 100.8,125.6 101.6,124.8 102.4,124.2 102.7,123.7 111,116.4 
		111,116.2 111.5,115.9 112.4,115.1 113.2,114.3 115.9,112.4 118.5,110.8 121.2,109.7 122.9,109.1 124.2,108.6 126.1,108.3 
		127.2,108.1 132.3,107.3 133.9,107 134.2,106.7 134.4,106.7 134.7,106.7 135.3,106.7 136.1,106.5 136.9,106.2 138.2,105.6 
		138.5,105.6 139,105.4 140.1,104.8 141.5,104 143.1,103.2 144.1,102.7 145.5,102.1 146.6,101.6 147.6,101.3 148.2,101.1 
		149.5,101.1 150.3,100.8 151.4,100.5 152.5,100.5 153,100.5 155.2,100.5 156.5,100.5 158.2,100.3 160.3,100.3 163,100.3 
		166.8,100.3 167.6,100 169.2,100 169.5,100 169.7,100 170.3,99.7 170.8,99.7 171.4,99.7 172.7,99.4 173.5,99.4 175.7,98.9 
		177.6,98.6 178.4,98.4 179.2,98.1 180,97.8 182.1,97.3 183.2,96.8 183.8,96.8 185.9,95.9 187,95.4 188.9,94.6 190.5,93.8 191.8,93 
		192.9,92.4 194.3,91.6 195.6,90.8 197.2,89.7 197.8,89.5 198.8,88.7 198.8,88.4 199.1,88.4 201.3,86.8 202.1,86.2 202.6,85.7 
		202.9,85.7 206.9,82.5 207.5,82.2 208,81.7 208.3,81.4 209.1,80.8 210.4,80 211.2,79.5 212.3,79 212.6,78.7 214.2,77.6 216.1,76.5 
		217.2,76.3 217.7,76 218.8,75.5 220.1,74.7 221.5,74.4 222.5,73.8 224.2,73.3 224.7,73 225,73 225.2,73 227.4,72.2 229.8,71.7 
		232.5,70.9 234.4,70.6 237.1,69.8 239.3,69.3 240.6,68.7 243,67.9 243.8,67.6 244.4,67.4 245.5,67.1 246.5,66.6 247.9,66 249,65.8 
		250.3,64.9 253.3,63.6 255.1,62.5 256.2,62 257,61.4 258.9,60.4 260,59.6 260.8,59 261.3,58.8 263,57.9 264.6,56.6 265.1,56.1 
		265.9,55.8 265.9,55.5 267,55 269.2,53.1 270.5,52 274.5,49 274.8,48.8 275.1,48.5 275.6,48 276.4,47.7 276.7,47.2 278.9,45.5 
		279.7,45 281,43.9 281.6,43.4 282.4,42.9 283.4,42 284,41.5 284.8,41 285.9,40.4 286.4,39.9 288,39.1 289.4,38.3 290.4,37.7 
		291.8,36.9 292.6,36.7 295.6,35.6 296.6,35 298,34.5 298.8,34.2 299.9,34 301,33.7 302.8,33.4 304.5,33.1 305.3,32.9 305.5,32.9 
		308.5,32.3 314.4,31.3 315,31.3 315.5,31 316,31 316.3,31 317.1,30.7 317.4,30.7 317.4,30.5 317.9,30.5 318.5,30.5 321.2,29.9 
		321.7,29.6 324.7,29.1 327.4,28.6 330.3,28 335.2,27.2 340.3,26.1 343.5,25.6 344.9,25.3 346.2,24.8 347,24.5 348.1,24.3 
		349.2,23.7 349.4,23.7 350,23.4 350.5,23.2 351.1,22.9 352.1,22.4 353,21.8 354.3,21 355.4,20.2 356.7,19.1 357.5,18.6 358.3,17.8 
		359.4,16.7 360.5,15.6 361.6,14.3 363.2,12.7 364,11.9 364.8,11 365.3,10.2 365.9,9.7 367.2,8.4 	"/>
	<polyline class="st18" points="72.2,134.7 72.7,134.5 73.3,134.5 73.6,134.2 75.4,134.2 77.3,134.2 77.6,134.2 80.8,133.9 
		81.9,133.9 82.2,133.9 84.9,133.4 85.9,133.1 87.6,132.6 89.2,132.1 89.7,131.8 90,131.5 91.6,131 92.1,130.7 93.5,129.9 
		94.6,129.4 95.4,128.8 95.9,128.6 97.3,127.5 98.1,126.9 98.3,126.7 100.8,124.8 101.6,124 101.8,123.7 104.3,121.5 107.5,118.8 
		111.5,115.1 111.5,114.8 112.6,114 113.4,113.5 113.7,113.2 116.4,111.3 119.1,110 120.7,109.1 122.9,108.6 123.7,108.3 125,107.8 
		125.6,107.8 126.6,107.5 133.1,106.5 133.6,106.5 134.2,106.2 134.4,106.2 134.7,106.2 135,106.2 135.5,105.9 135.8,105.9 
		136.3,105.6 136.9,105.6 138.2,105.1 139,104.8 139.6,104.6 140.6,104 143.1,102.7 143.9,102.1 144.7,101.9 145.5,101.3 
		146.3,101.3 147.4,100.8 149,100.5 149.5,100.3 150.3,100.3 151.4,100 152.5,100 153.8,100 157.1,99.7 163,99.7 165.4,99.7 
		167,99.4 168.1,99.4 169.5,99.4 170.3,99.2 170.5,99.2 171.1,99.2 172.2,98.9 173.2,98.9 175.1,98.4 176.5,98.1 178.1,97.8 
		178.4,97.8 178.9,97.6 181.1,97 181.3,96.8 181.9,96.8 183.2,96.2 183.8,95.9 185.4,95.4 186.4,95.1 187.5,94.6 188.3,94.1 
		189.4,93.8 190.5,93.2 192.4,92.2 193.2,91.6 194.3,91.1 195.1,90.6 195.6,90 196.7,89.5 198,88.7 198,88.4 198.3,88.4 200.5,86.8 
		202.1,85.4 202.6,85.2 206.4,82.2 206.7,81.9 207.2,81.7 208.5,80.6 209.6,79.8 210.7,79 211.8,78.4 212.6,77.9 214.2,77.1 
		215,76.5 217.4,75.5 217.7,75.2 219.9,74.4 220.4,74.1 220.7,74.1 222,73.6 223.9,72.8 224.7,72.5 225.2,72.5 225.8,72.2 226.6,72 
		227.7,71.7 230.1,71.1 230.9,70.9 234.7,69.8 235.8,69.5 238.2,68.7 242.5,67.4 243.6,67.1 244.4,66.8 245.2,66.6 245.5,66.3 
		247.3,65.5 249,64.9 251.4,63.6 253.3,62.8 254.9,62 256.2,61.2 258.4,59.8 260.5,58.8 263,57.1 264,56.3 265.9,55 269.7,52 
		270.5,51.2 273.2,49.3 273.7,48.8 274.3,48.2 274.5,48.2 274.8,48 275.1,47.7 275.6,47.2 276.4,46.9 277,46.4 279.4,44.5 
		281.3,42.9 282.1,42.3 282.6,41.8 284.5,40.4 285.6,39.6 286.4,39.1 287.2,38.5 288.8,37.5 291.5,36.4 293.1,35.3 293.7,35 
		294.8,34.8 295.6,34.5 296.1,34.2 297.2,34 298.3,33.7 309.6,31.5 313.6,30.7 313.9,30.7 314.4,30.7 315.5,30.5 315.5,30.2 
		316.6,30.2 316.8,30.2 318.7,29.6 320.9,29.1 321.4,29.1 325.5,28.3 326.3,28.3 327.4,28 328.4,27.8 331.9,27.2 333.8,26.7 
		338.1,25.9 341.4,25.3 343,25.1 344.6,24.5 345.1,24.5 347,24 347.6,23.7 349.2,23.2 350,22.6 350.5,22.4 350.8,22.4 351.3,22.1 
		353,21.3 353.5,20.8 354.3,20.2 355.1,19.7 357,18.1 357.8,17.2 358.3,16.7 359.4,15.6 360,15.1 360.2,14.8 361.3,13.5 362.4,12.7 
		362.9,12.1 364.5,10.2 364.8,10 365.1,9.7 365.9,8.9 	"/>
</g>
<g>
	<g>
		
			<use xlink:href="#Interstate_Highway"  width="19.1" height="20.3" id="XMLID_1_" x="-9.6" y="-10.2" transform="matrix(1.3635 0 0 -1.3635 208.1705 297.6825)" style="overflow:visible;"/>
		<g>
			<path class="st5" d="M202.6,302.5v-0.7l0.9-0.8c2-2,3-3,3-4.2c0-0.8-0.4-1.6-1.6-1.6c-0.7,0-1.3,0.4-1.7,0.7l-0.3-0.8
				c0.6-0.5,1.3-0.8,2.3-0.8c1.7,0,2.5,1.2,2.5,2.3c0,1.5-1.1,2.7-2.8,4.3l-0.6,0.6v0h3.6v0.9H202.6z"/>
			<path class="st5" d="M213.7,295.4h-3.1l-0.3,2.1c0.2,0,0.4,0,0.7,0c0.6,0,1.2,0.1,1.7,0.4c0.6,0.4,1.1,1,1.1,2.1
				c0,1.6-1.2,2.7-3,2.7c-0.9,0-1.6-0.2-2-0.5l0.3-0.8c0.3,0.2,1,0.4,1.7,0.4c1,0,1.9-0.7,1.9-1.7c0-1-0.7-1.8-2.3-1.8
				c-0.5,0-0.8,0-1.1,0.1l0.5-3.9h3.8V295.4z"/>
		</g>
	</g>
	<g>
		
			<use xlink:href="#Interstate_Highway"  width="19.1" height="20.3" id="XMLID_2_" x="-9.6" y="-10.2" transform="matrix(1.3635 0 0 -1.3635 246.2575 66.1614)" style="overflow:visible;"/>
		<g>
			<path class="st5" d="M245.8,63v0.7l-3.5,7.3h-1.1l3.5-7.1v0h-3.9V63H245.8z"/>
			<path class="st5" d="M251.6,63.7c-0.2,0-0.5,0-0.8,0c-1.7,0.3-2.6,1.5-2.8,2.9h0c0.4-0.5,1-0.9,1.9-0.9c1.4,0,2.4,1,2.4,2.6
				c0,1.5-1,2.8-2.7,2.8c-1.7,0-2.8-1.3-2.8-3.4c0-1.6,0.6-2.8,1.4-3.6c0.7-0.7,1.6-1.1,2.6-1.2c0.3,0,0.6-0.1,0.8-0.1V63.7z
				 M251.2,68.4c0-1.1-0.7-1.8-1.7-1.8c-0.7,0-1.3,0.4-1.6,1c-0.1,0.1-0.1,0.3-0.1,0.5c0,1.3,0.6,2.3,1.8,2.3
				C250.6,70.3,251.2,69.5,251.2,68.4z"/>
		</g>
	</g>
	<g>
		
			<use xlink:href="#Interstate_Highway"  width="19.1" height="20.3" id="XMLID_4_" x="-9.6" y="-10.2" transform="matrix(1.3635 0 0 -1.3635 186.4505 147.6457)" style="overflow:visible;"/>
		<g>
			<path class="st5" d="M186,144.5v0.7l-3.5,7.3h-1.1l3.5-7.1v0H181v-0.9H186z"/>
			<path class="st5" d="M192.5,148.4c0,2.7-1,4.2-2.8,4.2c-1.6,0-2.6-1.5-2.7-4.1c0-2.7,1.2-4.2,2.8-4.2
				C191.5,144.3,192.5,145.8,192.5,148.4z M188.1,148.5c0,2.1,0.6,3.3,1.6,3.3c1.1,0,1.6-1.3,1.6-3.3c0-2-0.5-3.3-1.6-3.3
				C188.8,145.2,188.1,146.3,188.1,148.5z"/>
		</g>
	</g>
	<g>
		
			<use xlink:href="#Interstate_Highway"  width="19.1" height="20.3" id="XMLID_3_" x="-9.6" y="-10.2" transform="matrix(1.8364 0 0 -1.4434 441.8526 127.9722)" style="overflow:visible;"/>
		<g>
			<path class="st5" d="M432.8,133.1v-0.7l0.9-0.8c2-2,3-3,3-4.2c0-0.8-0.4-1.6-1.6-1.6c-0.7,0-1.3,0.4-1.7,0.7l-0.3-0.8
				c0.6-0.5,1.3-0.8,2.3-0.8c1.7,0,2.5,1.2,2.5,2.3c0,1.5-1.1,2.7-2.8,4.3l-0.6,0.6v0h3.6v0.9H432.8z"/>
			<path class="st5" d="M444.4,125.1v0.7l-3.5,7.3h-1.1l3.5-7.1v0h-3.9v-0.9H444.4z"/>
			<path class="st5" d="M450.8,129c0,2.7-1,4.2-2.8,4.2c-1.6,0-2.6-1.5-2.7-4.1c0-2.7,1.2-4.2,2.8-4.2
				C449.9,125,450.8,126.5,450.8,129z M446.5,129.1c0,2.1,0.6,3.3,1.6,3.3c1.1,0,1.6-1.3,1.6-3.3c0-2-0.5-3.3-1.6-3.3
				C447.2,125.8,446.5,127,446.5,129.1z"/>
		</g>
	</g>
</g>
</svg>
